PathFileType	4	(X/Y/Z)	OpenSim_Sub05_CSBaseline_Gyro.trc
DataRate	CameraRate	NumFrames	NumMarkers	Units	OrigDataRate	OrigDataStartFrame	OrigNumFrames
100	100	41	8	m	100	1	10557
Frame#	Time	torso_imu_offset_imu	pelvis_imu_offset_imu	tibia_r_imu_offset_imu	femur_r_imu_offset_imu	tibia_l_imu_offset_imu	femur_l_imu_offset_imu	toes_r_imu_offset_imu	toes_l_imu_offset_imu
				X1	Y1	Z1	X2	Y2	Z2	X3	Y3	Z3	X4	Y4	Z4	X5	Y5	Z5	X6	Y6	Z6	X7	Y7	Z7	X8		Y8	Z8	

1	0	-0.12341145	-0.09778675	-0.02500707	-0.05172078	0.07142339	-0.05066041	-0.01502090	-0.01103383	-0.00068758	-0.06595421	-0.00153400	-0.00855655	-0.05521915	-0.03758489	0.01925493	-0.12351361	-0.02582364	0.04993591	0.02171558	0.05005848	-0.00446535	-0.00205060	0.05844910	-0.02035843
2	0.01000000	-0.13024966	-0.09751206	-0.02676848	-0.05000785	0.06248823	-0.05041003	-0.02817026	-0.00549309	-0.00011763	-0.03190211	-0.03817868	0.00248827	-0.04910190	-0.03674351	0.02586052	-0.10594783	-0.00302974	0.03993614	0.02994148	0.05288942	-0.00686424	-0.00557483	0.06778725	-0.02508104
3	0.02000000	-0.13370340	-0.10933601	-0.02624597	-0.05068838	0.06634405	-0.04566725	-0.01117223	-0.01461146	0.00478880	-0.02949124	-0.07414911	0.01342760	-0.04872250	-0.03551639	0.02886460	-0.09486568	0.00061515	0.02132101	0.03124230	0.05160059	-0.01228893	-0.01072800	0.07351329	-0.02595238
4	0.03000000	-0.13888360	-0.11491999	-0.03488639	-0.05419734	0.07975244	-0.04233254	0.03896118	-0.04371333	0.00246919	-0.03179983	-0.07041804	0.01508209	-0.03926390	-0.04142419	0.03930905	-0.08491252	-0.02077312	0.01969933	0.03322742	0.05308687	-0.02801616	-0.00174303	0.07948272	-0.02741361
5	0.04000000	-0.15505132	-0.11300493	-0.03649997	-0.05839287	0.08755849	-0.03696532	0.07944248	-0.04985202	0.00341718	-0.01108347	-0.04197757	0.01137569	-0.03402774	-0.05117025	0.04742466	-0.06892346	-0.01345326	0.01066192	0.03254226	0.05724995	-0.03053812	0.00149250	0.08344135	-0.02799745
6	0.05000000	-0.18120823	-0.11562535	-0.03867878	-0.05782655	0.08953952	-0.03140136	0.12145341	-0.04458747	-0.00955216	0.00164198	0.00232122	0.01547369	-0.03013788	-0.05123640	0.05646834	-0.06474987	-0.00816514	0.00237285	0.01974557	0.04944307	-0.03173332	0.00118841	0.08400868	-0.02349552
7	0.06000000	-0.19956551	-0.12367279	-0.03363787	-0.06060831	0.08870173	-0.03134231	0.17918450	-0.07462203	-0.00750680	0.00566665	0.02383511	0.02866659	-0.02623259	-0.04878365	0.06607791	-0.07727127	-0.02587403	-0.00632877	0.01947026	0.04694276	-0.03459736	-0.00554329	0.08759996	-0.01990277
8	0.07000000	-0.18543311	-0.12592445	-0.01875360	-0.06614330	0.08805071	-0.03105777	0.16823011	-0.08368990	-0.01690697	0.01290482	0.00292986	0.03484575	-0.04173156	-0.04686972	0.07346721	-0.07856177	-0.02323861	-0.01846837	0.01081309	0.05280360	-0.02921012	-0.01391343	0.09066887	-0.01822643
9	0.08000000	-0.17579920	-0.12816548	-0.01784203	-0.06544826	0.08661117	-0.02939968	0.17012524	-0.05844787	-0.04565957	0.02106129	-0.02040991	0.04717518	-0.04891671	-0.04619812	0.07836512	-0.05207319	-0.00483594	-0.03098974	0.00436308	0.05618675	-0.02039002	-0.02084171	0.08718136	-0.01335826
10	0.09000000	-0.17559525	-0.13480330	-0.02450366	-0.06870126	0.08776636	-0.02974693	0.15489321	-0.04189356	-0.04618618	0.00811247	-0.04366779	0.06829265	-0.04622791	-0.04532331	0.08031611	-0.06081440	-0.00433878	-0.03058788	0.01462863	0.05710975	-0.01420389	-0.02745183	0.08273977	-0.01000243
11	0.10000000	-0.17983354	-0.13980233	-0.01897403	-0.08119555	0.09273144	-0.02048342	0.11137713	-0.03821369	-0.05420243	-0.02720360	-0.06998854	0.09442504	-0.05590391	-0.04684447	0.08022071	-0.05465786	-0.00365852	-0.03651226	0.02098229	0.05690082	-0.01481250	-0.03010407	0.08337209	-0.00590544
12	0.11000000	-0.18530399	-0.15201667	-0.01031896	-0.08829123	0.10118959	-0.02184114	0.09858106	-0.03868181	-0.05297606	-0.03951432	-0.07003301	0.10436978	-0.05504688	-0.05009959	0.07553671	-0.03279364	0.01698407	-0.04861812	0.02969076	0.05004604	-0.01607306	-0.02309322	0.08039044	0.00125358
13	0.12000000	-0.20672667	-0.16813712	-0.01409623	-0.09916477	0.09932736	-0.02016491	0.12107195	-0.05990426	-0.04725725	-0.05123414	-0.06874594	0.10211529	-0.02716115	-0.04834415	0.08626328	-0.04026555	0.02787834	-0.05087994	0.02792004	0.04965945	-0.02435661	-0.01682243	0.08162019	0.00440694
14	0.13000000	-0.23276387	-0.17602675	-0.02642009	-0.10687853	0.09194630	-0.02137276	0.14450224	-0.07600420	-0.05313191	-0.08229199	-0.07459011	0.10295319	-0.01485873	-0.04442303	0.09127183	-0.05502461	0.01743496	-0.06064444	0.03947502	0.04455713	-0.01656192	-0.01128842	0.08035976	0.01285432
15	0.14000000	-0.23327132	-0.19427301	-0.04283337	-0.11201927	0.08485847	-0.02432522	0.13181587	-0.06150077	-0.06111343	-0.09387551	-0.05770361	0.09728377	-0.01484814	-0.04069435	0.09105056	-0.07047060	0.00714580	-0.06154070	0.02967892	0.04174632	-0.01395527	-0.00404997	0.07558119	0.00983359
16	0.15000000	-0.22862012	-0.21172401	-0.04785618	-0.12414981	0.08004361	-0.02546822	0.15333044	-0.05451184	-0.06165973	-0.07498036	-0.03762289	0.09539977	-0.02587542	-0.03439117	0.09275008	-0.08580035	0.01058103	-0.05501781	0.01664343	0.03945730	-0.01459394	-0.00568719	0.07033928	0.00776275
17	0.16000000	-0.22972429	-0.24113685	-0.04512911	-0.14053835	0.08149420	-0.03395411	0.15494046	-0.04808363	-0.05084111	-0.06202363	-0.02546142	0.09797470	-0.04508360	-0.03117330	0.08532787	-0.09460606	0.03598908	-0.04647041	0.01083981	0.04216087	-0.00980203	-0.01705938	0.06078671	0.00629441
18	0.17000000	-0.23459702	-0.27182154	-0.05011957	-0.15458338	0.08465435	-0.04369125	0.13639396	-0.04834274	-0.05047762	-0.05511914	-0.02350849	0.10483778	-0.05785242	-0.02126788	0.07952587	-0.11529031	0.04907034	-0.03503143	0.00048084	0.04208753	-0.00238914	-0.02165531	0.05355403	0.00756055
19	0.18000000	-0.24442968	-0.30287286	-0.05392328	-0.16878767	0.09119374	-0.05047155	0.13081325	-0.05122865	-0.05651564	-0.03594041	-0.01076985	0.11004714	-0.04572232	-0.01053695	0.07517606	-0.12501417	0.05440832	-0.03335815	0.00727300	0.03984237	-0.00273018	-0.02883025	0.05250615	0.00434107
20	0.19000000	-0.26017224	-0.32681805	-0.03425441	-0.17246753	0.09929838	-0.05060291	0.11351076	-0.05483978	-0.03495668	-0.03321554	-0.00226822	0.10214092	-0.03382461	-0.00496718	0.07501501	-0.11885330	0.05978499	-0.04545744	0.00534368	0.04497940	-0.00171623	-0.02998562	0.04125531	-0.00123872
21	0.20000000	-0.27948755	-0.34317819	-0.03680460	-0.17236792	0.10468698	-0.05355061	0.07712484	-0.04689280	-0.02708963	-0.04967125	0.02170988	0.10266463	-0.03569549	-0.00545054	0.06750965	-0.11699602	0.04939540	-0.06041120	0.00635447	0.04009467	0.00170968	-0.02735716	0.03168257	0.00613483
22	0.21000000	-0.28943189	-0.35541687	-0.05354676	-0.18920214	0.10653510	-0.05714536	0.03643140	-0.04030325	-0.03195284	-0.09300771	0.03561611	0.10668033	-0.02308148	0.00103891	0.06398814	-0.14493442	0.03123156	-0.06260780	-0.00942417	0.03527734	0.00391363	-0.02917648	0.03048275	0.00720380
23	0.22000000	-0.30106722	-0.36647407	-0.05431334	-0.20865402	0.10872516	-0.05622218	-0.01089954	-0.04950988	-0.03274703	-0.12815915	0.05060192	0.11451131	-0.03328564	0.00215762	0.06392644	-0.16676258	0.02057681	-0.05618293	-0.03207663	0.03540791	0.01022866	-0.03078775	0.02501600	0.00992881
24	0.23000000	-0.30120444	-0.39123003	-0.05984936	-0.21550163	0.12090727	-0.06001846	-0.08188753	-0.04842032	-0.03235808	-0.15928044	0.06381874	0.11319325	-0.03917167	0.00322076	0.05446344	-0.16819080	0.02316459	-0.03875138	-0.05413603	0.03358013	0.01455615	-0.02830667	0.02068707	0.01334608
25	0.24000000	-0.30958385	-0.41669736	-0.05074119	-0.22330345	0.12592452	-0.06176469	-0.08464916	-0.04502419	-0.02895536	-0.20340144	0.05422906	0.11123577	-0.03413537	0.00970654	0.05041151	-0.16604605	0.02494551	-0.02618751	-0.05908363	0.03059614	0.01705700	-0.01895436	0.02476397	0.01220782
26	0.25000000	-0.32626931	-0.44834907	-0.10042433	-0.23011792	0.11988345	-0.06197035	-0.03002359	-0.04501818	-0.02468597	-0.22146796	0.05205183	0.11313563	-0.05145141	0.01094546	0.05637103	-0.15952979	0.03893398	-0.01734646	-0.05104260	0.02451647	0.01765743	-0.01769840	0.03010325	0.01109270
27	0.26000000	-0.35464017	-0.47407927	-0.14077989	-0.23518167	0.11735707	-0.06313796	-0.01757471	-0.04459898	-0.01222294	-0.22281987	0.05560038	0.10099795	-0.05764596	0.01412935	0.04978863	-0.16878840	0.04808421	-0.01044199	-0.04336867	0.02330727	0.01650262	-0.01670803	0.03227664	0.01286026
28	0.27000000	-0.36847419	-0.48491126	-0.03906252	-0.23720796	0.12766508	-0.06538414	-0.01436605	-0.03325844	0.00069533	-0.20541127	0.05027247	0.09204423	-0.06044620	0.01834936	0.04014542	-0.17914441	0.03698273	-0.01400954	-0.03328123	0.02257252	0.01501105	-0.01612138	0.03127074	0.01086584
29	0.28000000	-0.35643489	-0.50438160	-0.00990009	-0.23812123	0.13885728	-0.06672159	0.00010474	-0.03092903	-0.00066482	-0.18737771	0.03927321	0.09317548	-0.07211894	0.01658307	0.03463671	-0.18575215	0.02520725	-0.01341553	-0.02967478	0.01861742	0.01365622	-0.01917008	0.02422618	0.01126505
30	0.29000000	-0.35017768	-0.53139287	-0.03873107	-0.23819217	0.15486331	-0.07317989	-0.01258747	-0.03489852	0.00476214	-0.18184709	0.02090374	0.10791346	-0.08980757	0.02044015	0.03152329	-0.21125204	0.02698508	-0.01093537	-0.03221200	0.02126072	0.01272127	-0.01825003	0.02086007	0.00991441
31	0.30000000	-0.36298546	-0.55813679	-0.02244862	-0.24708379	0.17902907	-0.07414839	-0.02296725	-0.04190481	0.00607315	-0.15269075	0.02249958	0.11260187	-0.07223661	0.03185423	0.02468268	-0.24100903	0.03180790	0.00025297	-0.03141777	0.02654172	0.01412268	-0.02171069	0.01676605	0.00744310
32	0.31000000	-0.39246382	-0.57874028	-0.00638292	-0.25379499	0.19712070	-0.07469686	-0.01947216	-0.04532664	-0.00105822	-0.12233948	0.02956720	0.11607406	-0.05280849	0.03906167	0.01792979	-0.24650721	0.03694705	-0.00048585	-0.03964025	0.03386211	0.01429878	-0.02439799	0.00990478	0.00720821
33	0.32000000	-0.41189658	-0.59043216	0.00570119	-0.25224192	0.21367407	-0.07832483	-0.01737851	-0.04543289	-0.00359298	-0.09824847	0.02305233	0.12285393	-0.04593235	0.03804983	0.01208844	-0.23786500	0.04202317	-0.00354180	-0.04476097	0.03192441	0.01757405	-0.02739988	0.00743329	0.01181895
34	0.33000000	-0.41466913	-0.59387145	0.00604260	-0.25214950	0.23708559	-0.07812765	-0.02358154	-0.05256022	-0.00324459	-0.10978198	0.01429568	0.12573611	-0.03458747	0.04645626	-0.00005983	-0.22363274	0.03703266	-0.00284358	-0.03840926	0.04070325	0.02054624	-0.02314726	0.01434136	0.01449167
35	0.34000000	-0.40861016	-0.59765161	-0.00458967	-0.24696148	0.24808512	-0.07730870	0.00222381	-0.05428825	-0.00098862	-0.13522219	0.02037099	0.12560339	-0.02647173	0.04223114	0.00512728	-0.20311893	0.02382384	-0.00285633	-0.03899351	0.03150249	0.02439256	-0.01865563	0.01974879	0.01175283
36	0.35000000	-0.37035949	-0.60005548	-0.03010337	-0.25472502	0.24478297	-0.07723638	0.02401007	-0.04787748	0.00532078	-0.12680529	0.04395083	0.11098187	-0.01986055	0.04508595	0.00382110	-0.18394135	0.01527573	0.00364887	-0.03232183	0.01914757	0.02137671	-0.01695504	0.02600758	0.00786101
37	0.36000000	-0.32514718	-0.60575179	-0.03697590	-0.25596360	0.25035005	-0.07303487	0.00199037	-0.04178712	0.02033895	-0.12557483	0.04166032	0.09358904	-0.01394593	0.05028467	-0.00318569	-0.16440493	0.01607515	0.00951454	-0.03417740	0.02337112	0.01967478	-0.02028832	0.03232819	0.00638248
38	0.37000000	-0.32084865	-0.62055371	-0.03040875	-0.24163267	0.28270892	-0.06779615	-0.01549455	-0.03377912	0.02874207	-0.14056786	0.03819468	0.08222004	-0.02797338	0.04539749	-0.00615321	-0.14856773	0.01569001	0.01973252	-0.03335051	0.01447108	0.02498178	-0.01743034	0.02758846	0.00829264
39	0.38000000	-0.33231159	-0.63924734	-0.02381128	-0.22340789	0.30568989	-0.06580481	-0.01277839	-0.03001051	0.03212375	-0.12005399	0.05120960	0.07345195	-0.04565232	0.04371201	-0.00116591	-0.15155347	0.01429803	0.02818083	-0.02193712	0.01192253	0.02536949	-0.01021850	0.02641798	0.00667063
40	0.39000000	-0.35369151	-0.64665339	-0.01132695	-0.20924702	0.32119715	-0.06106655	-0.02257445	-0.03283448	0.04000118	-0.08929529	0.05347826	0.06521046	-0.02813948	0.04700264	-0.00054135	-0.16025202	0.01763505	0.03925603	-0.02389591	0.01420770	0.02247398	-0.00629583	0.02240617	0.00224900
41	0.40000000	-0.35142678	-0.65956984	-0.00293104	-0.19488931	0.33522620	-0.05317546	-0.04020021	-0.04110792	0.04559361	-0.07565727	0.04697470	0.07168145	0.00417179	0.05224455	-0.00107902	-0.16787113	0.02631073	0.04046209	-0.04139057	0.01370470	0.02700043	-0.00847963	0.01269109	0.00010112
